<?xml version="1.0" encoding="UTF-8" standalone="no"?>
<!-- Created with Inkscape (http://www.inkscape.org/) -->

<svg
   width="2160"
   height="1937"
   viewBox="0 0 2160 1937"
   version="1.1"
   id="svg11101"
   xml:space="preserve"
   inkscape:version="1.2.2 (732a01da63, 2022-12-09)"
   sodipodi:docname="Heart.svg"
   inkscape:export-filename="Heart.png"
   inkscape:export-xdpi="96"
   inkscape:export-ydpi="96"
   xmlns:inkscape="http://www.inkscape.org/namespaces/inkscape"
   xmlns:sodipodi="http://sodipodi.sourceforge.net/DTD/sodipodi-0.dtd"
   xmlns="http://www.w3.org/2000/svg"
   xmlns:svg="http://www.w3.org/2000/svg"><sodipodi:namedview
     id="namedview11103"
     pagecolor="#505050"
     bordercolor="#eeeeee"
     borderopacity="1"
     inkscape:showpageshadow="0"
     inkscape:pageopacity="0"
     inkscape:pagecheckerboard="0"
     inkscape:deskcolor="#505050"
     inkscape:document-units="px"
     showgrid="false"
     inkscape:zoom="0.25"
     inkscape:cx="-166"
     inkscape:cy="856"
     inkscape:window-width="1920"
     inkscape:window-height="1017"
     inkscape:window-x="-8"
     inkscape:window-y="1072"
     inkscape:window-maximized="1"
     inkscape:current-layer="layer1" /><defs
     id="defs11098" /><g
     inkscape:label="Layer 1"
     inkscape:groupmode="layer"
     id="layer1"><path
       style="fill:#000000;stroke-width:4.84577"
       d="M 1036.3876,1920.8544 C 716.45119,1781.6039 373.80319,1473.7778 178.78772,1150.4089 93.06794,1008.2709 44.84026,885.28573 13.2637,728.30703 -0.27602002,660.99603 -1.19769,649.88773 0.79999998,578.08935 2.53975,515.56279 5.31994,491.61383 15.16545,454.34478 63.03546,273.13834 169.98363,141.24256 336.16591,58.46516 412.64238,20.37131 475.45938,4.7402899 568.76549,0.58647992 761.69999,-8.0026301 947.45909,78.16752 1066.809,231.61954 l 13.191,16.96005 13.191,-16.96005 C 1212.5409,78.16752 1398.3,-8.0026301 1591.2345,0.58647992 1684.6017,4.7429999 1747.4872,20.40082 1823.8341,58.50131 c 166.3647,83.02323 273.1339,214.46361 320.7534,394.86972 10.1174,38.32959 12.8602,61.73946 14.6125,124.71832 1.9977,71.79838 1.076,82.90668 -12.4637,150.21768 -32.1665,159.9118 -82.0392,284.96147 -173.9327,436.11587 -170.8639,281.0515 -487.2206,576.6271 -768.5486,718.0637 -53.8564,27.076 -118.2294,54.9471 -125.8958,54.5083 -3.0954,-0.1773 -21.9826,-7.4404 -41.9716,-16.1405 z"
       id="path300" /></g></svg>
