<?xml version="1.0" encoding="UTF-8" standalone="no"?>
<!-- Created with Inkscape (http://www.inkscape.org/) -->

<svg
   width="3840"
   height="2160"
   viewBox="0 0 3840 2160"
   version="1.1"
   id="svg5"
   inkscape:version="1.2.2 (732a01da63, 2022-12-09)"
   sodipodi:docname="Autistic.svg"
   inkscape:export-filename="Autistic.png"
   inkscape:export-xdpi="86.08889"
   inkscape:export-ydpi="86.08889"
   xmlns:inkscape="http://www.inkscape.org/namespaces/inkscape"
   xmlns:sodipodi="http://sodipodi.sourceforge.net/DTD/sodipodi-0.dtd"
   xmlns="http://www.w3.org/2000/svg"
   xmlns:svg="http://www.w3.org/2000/svg">
  <sodipodi:namedview
     id="namedview7"
     pagecolor="#505050"
     bordercolor="#eeeeee"
     borderopacity="1"
     inkscape:pageshadow="0"
     inkscape:pageopacity="0"
     inkscape:pagecheckerboard="0"
     inkscape:document-units="px"
     showgrid="false"
     inkscape:zoom="0.26173516"
     inkscape:cx="1663.8957"
     inkscape:cy="863.46825"
     inkscape:window-width="1920"
     inkscape:window-height="1017"
     inkscape:window-x="-8"
     inkscape:window-y="32"
     inkscape:window-maximized="1"
     inkscape:current-layer="layer1"
     units="px"
     fit-margin-top="0"
     fit-margin-left="0"
     fit-margin-right="0"
     fit-margin-bottom="0"
     inkscape:showpageshadow="0"
     inkscape:deskcolor="#505050" />
  <defs
     id="defs2">
    <pattern
       id="EMFhbasepattern"
       patternUnits="userSpaceOnUse"
       width="6"
       height="6"
       x="0"
       y="0" />
  </defs>
  <g
     inkscape:label="Layer 1"
     id="layer1">
    <g
       id="g929"
       inkscape:label="Stripes"
       transform="scale(3.7795276)">
      <path
         style="fill:#26ac74;stroke-width:2.35158"
         d="M 0,285.75 V 0 h 508 508 V 285.75 571.5 H 508 0 Z"
         id="path931"
         inkscape:label="5" />
      <path
         style="fill:#98d570;stroke-width:2.15669"
         d="M 0,244.92849 V 0 h 508 508 v 244.92849 244.9285 H 508 0 Z"
         id="path937"
         inkscape:label="4" />
      <path
         style="fill:#fbc859;stroke-width:1.1314"
         d="M 0,204.10713 V 0 h 508 508 V 204.10713 408.21425 H 508 0 Z"
         id="path939"
         inkscape:label="3" />
      <path
         style="fill:#f68249;stroke-width:1.25103"
         d="M 0,81.642743 V 0 h 508 508 V 81.642743 163.28548 H 508 0 Z"
         id="path935"
         inkscape:label="2" />
      <path
         style="fill:#e43345;stroke-width:0.876383"
         d="M 0,40.821372 V 0 h 508 508 V 40.821372 81.642744 H 508 0 Z"
         id="path933"
         inkscape:label="1" />
    </g>
    <path
       d="m 922.8672,1091.1604 c -8.00077,-322.05973 365.4986,-548.26233 693.32,-371.49262 107.9971,58.2353 199.6763,144.48461 298.2527,238.68408 4.481,4.28277 6.5505,3.84045 10.745,-0.13757 154.1867,-146.25525 377.4396,-369.26805 690.1477,-282.50079 131.6012,36.51504 223.0471,116.85702 269.8973,237.9205 156.7996,405.1779 -292.9807,740.6345 -678.6846,518.2606 -97.2794,-56.0855 -181.2912,-133.4753 -280.5957,-228.6415 -5.3012,-5.0807 -7.6919,-4.3612 -12.5388,0.2377 -112.8204,107.0543 -234.2622,223.4199 -384.2638,272.1347 -305.2444,99.1303 -597.86396,-72.0277 -606.2798,-384.4649 z m 191.0066,-6.2432 c 9.7318,186.0363 161.8117,272.7625 323.8475,239.7842 140.0353,-28.5004 257.5079,-144.3907 357.5622,-241.1728 3.3713,-3.2609 1.4811,-4.5849 -0.8355,-6.6195 -86.9022,-76.3292 -171.7695,-169.56635 -278.7261,-217.54696 -207.2968,-92.99293 -402.5456,43.38399 -401.8481,225.55506 z m 1611.8381,-7.8629 c -6.1604,-179.79087 -156.9001,-277.76696 -330.601,-239.42852 -136.6689,30.16467 -253.4553,145.50633 -350.4844,239.31552 -3.3659,3.2545 -2.0736,4.7742 0.6849,7.1961 121.3154,106.5328 264.4764,274.7334 457.898,244.078 128.8389,-20.4198 222.7899,-126.0151 222.5025,-251.1611 z"
       id="path1002"
       inkscape:label="Infinity sign"
       style="fill:#ffffff;stroke-width:0.756121" />
  </g>
</svg>
