<?xml version="1.0" encoding="UTF-8" standalone="no"?>
<!-- Created with Inkscape (http://www.inkscape.org/) -->

<svg
   width="3840"
   height="2160"
   viewBox="0 0 1016 571.5"
   version="1.1"
   id="svg21207"
   xml:space="preserve"
   inkscape:version="1.2.2 (732a01da63, 2022-12-09)"
   sodipodi:docname="Chimeragender.svg"
   xmlns:inkscape="http://www.inkscape.org/namespaces/inkscape"
   xmlns:sodipodi="http://sodipodi.sourceforge.net/DTD/sodipodi-0.dtd"
   xmlns="http://www.w3.org/2000/svg"
   xmlns:svg="http://www.w3.org/2000/svg"><sodipodi:namedview
     id="namedview21209"
     pagecolor="#505050"
     bordercolor="#eeeeee"
     borderopacity="1"
     inkscape:showpageshadow="0"
     inkscape:pageopacity="0"
     inkscape:pagecheckerboard="0"
     inkscape:deskcolor="#505050"
     inkscape:document-units="px"
     showgrid="false"
     inkscape:zoom="0.12319126"
     inkscape:cx="1907.6029"
     inkscape:cy="1047.1522"
     inkscape:window-width="1920"
     inkscape:window-height="1017"
     inkscape:window-x="-8"
     inkscape:window-y="1072"
     inkscape:window-maximized="1"
     inkscape:current-layer="svg21207" /><defs
     id="defs21204" /><g
     inkscape:label="Layer 1"
     inkscape:groupmode="layer"
     id="layer1"><rect
       style="fill:#874406;fill-rule:evenodd;stroke-width:0.64435;fill-opacity:1"
       id="rect21319"
       width="1016"
       height="571.5"
       x="0"
       y="0"
       inkscape:label="2160" /><rect
       style="fill:#ab5c16;fill-rule:evenodd;stroke-width:0.614364;fill-opacity:1"
       id="rect21319-0"
       width="1016"
       height="519.54535"
       x="0"
       y="0"
       inkscape:label="1963.636" /><rect
       style="fill:#cc7b09;fill-rule:evenodd;stroke-width:0.581185;fill-opacity:1"
       id="rect21319-4"
       width="1016"
       height="464.94489"
       x="0"
       y="0"
       inkscape:label="1757.272" /><rect
       style="fill:#faaf47;fill-rule:evenodd;stroke-width:0.549503;fill-opacity:1"
       id="rect21319-8"
       width="1016"
       height="415.63608"
       x="0"
       y="0"
       inkscape:label="1570.908" /><rect
       style="fill:#fff5db;fill-rule:evenodd;stroke-width:0.514013;fill-opacity:1"
       id="rect21319-06"
       width="1016"
       height="363.6817"
       x="0"
       y="0"
       inkscape:label="1374.545" /><rect
       style="fill:#ffe39d;fill-rule:evenodd;stroke-width:0.475884;fill-opacity:1"
       id="rect21319-43"
       width="1016"
       height="311.72705"
       x="0"
       y="0"
       inkscape:label="1178.181" /><rect
       style="fill:#d5ae30;fill-rule:evenodd;stroke-width:0.434421;fill-opacity:1"
       id="rect21319-3"
       width="1016"
       height="259.77267"
       x="0"
       y="0"
       inkscape:label="981.818" /><rect
       style="fill:#916422;fill-rule:evenodd;stroke-width:0.388557;fill-opacity:1"
       id="rect21319-2"
       width="1016"
       height="207.81804"
       x="0"
       y="0"
       inkscape:label="785.454" /><rect
       style="fill:#6f442a;fill-rule:evenodd;stroke-width:0.3365;fill-opacity:1"
       id="rect21319-7"
       width="1016"
       height="155.8634"
       x="0"
       y="0"
       inkscape:label="589.090" /><rect
       style="fill:#603d2e;fill-rule:evenodd;stroke-width:0.274752;fill-opacity:1"
       id="rect21319-9"
       width="1016"
       height="103.90902"
       x="0"
       y="0"
       inkscape:label="392.727" /><rect
       style="fill:#4a2722;fill-rule:evenodd;stroke-width:0.194277;fill-opacity:1"
       id="rect21319-34"
       width="1016"
       height="51.953583"
       x="0"
       y="0"
       inkscape:label="196.363" /></g><path
     style="display:inline;fill:#000000;stroke-width:0.669988"
     d="m 478.37806,496.38698 c -15.84639,-1.52896 -47.34953,-12.01496 -65.37347,-21.75994 -32.58274,-17.61647 -55.89396,-38.41248 -77.28826,-68.94914 -5.2843,-7.54241 -10.20121,-16.08524 -15.25558,-26.50563 -10.28246,-21.1989 -15.98327,-39.76362 -19.59597,-63.81438 -1.98527,-13.21657 -2.18546,-45.09313 -0.35634,-56.74242 2.91968,-18.59478 6.43536,-32.55781 11.79712,-46.85405 15.52816,-41.40318 43.84101,-77.29682 80.31148,-101.81492 29.62947,-19.919103 63.34952,-31.988882 99.49645,-35.613853 10.30403,-1.03333 39.89902,-0.452196 49.05093,0.963181 15.25319,2.358956 26.31134,4.978636 38.71031,9.170492 20.05694,6.780877 34.94633,14.139024 53.241,26.31103 3.83142,2.54916 2.34545,2.4481 -3.74348,-0.25461 -10.25993,-4.5541 -16.09274,-5.67484 -29.24887,-5.61998 -9.79293,0.0409 -12.47002,0.29474 -19.09466,1.81094 -12.50889,2.86292 -23.96239,7.06425 -40.36289,14.80575 -12.64763,5.97003 -18.53677,7.17761 -21.33881,4.37556 -1.79266,-1.79265 -1.33904,-4.69188 1.61502,-10.32203 5.61978,-10.71077 17.04888,-17.395437 35.63211,-20.840577 l 6.69988,-1.242091 -4.01993,-0.381056 c -5.10562,-0.483973 -17.05064,0.350544 -24.20407,1.690976 -6.97969,1.307878 -19.27517,5.446058 -25.37506,8.540238 -13.35609,6.77493 -24.06925,15.45915 -44.27952,35.89356 -14.01603,14.17148 -14.91871,14.95262 -17.04053,14.74622 -1.83377,-0.17838 -2.34536,-0.58282 -2.81805,-2.22791 -1.33579,-4.64878 1.20171,-15.3328 5.3307,-22.4446 1.43517,-2.47196 5.18454,-7.01643 8.67157,-10.51049 6.43919,-6.45216 6.42901,-6.72473 -0.11329,-3.03427 -15.04332,8.48582 -29.57857,23.34977 -37.35268,38.19737 -1.67943,3.20752 -4.61989,9.70386 -6.53434,14.43631 -5.31714,13.14377 -9.67777,20.72347 -16.44216,28.57989 -4.14085,4.80935 -9.60485,9.14349 -22.97097,18.22101 -7.58441,5.15091 -11.47647,8.23934 -12.68533,10.06605 -1.68761,2.55014 -1.74191,2.95106 -1.68117,12.41426 0.0715,11.13567 -0.1096,11.6694 -5.11095,15.06524 -1.6943,1.1504 -10.06883,7.17445 -18.61008,13.38678 -13.23171,9.62386 -15.73486,11.71929 -16.9172,14.16169 -0.76322,1.5766 -1.3756,3.7512 -1.36084,4.83246 l 0.0268,1.96594 1.0848,-2.00997 c 1.94373,-3.60137 3.48425,-4.24314 18.58438,-7.74209 7.47407,-1.73187 8.79862,-1.87793 9.61618,-1.06036 2.10549,2.10548 -0.99028,5.36175 -13.78282,14.49735 -6.94434,4.9592 -8.73472,7.51276 -7.58327,10.81581 0.73816,2.11748 8.39646,12.21141 13.08075,17.24093 1.56737,1.68289 4.47832,3.73865 6.83223,4.82504 3.13223,1.44561 4.67371,2.6896 6.52377,5.26473 3.6322,5.05576 10.88228,9.81813 9.49991,6.24022 -1.55135,-4.01528 -2.15988,-11.86418 -0.97654,-12.59553 1.53146,-0.9465 9.93759,-0.23084 16.02592,1.36437 8.40073,2.20109 20.70545,8.34176 24.98944,12.47098 2.78763,2.68691 3.21593,3.44309 3.03074,5.35074 -0.28844,2.97126 -2.84972,4.40696 -10.02939,5.62191 -8.48579,1.43596 -13.67139,1.65577 -20.17399,0.85513 -5.11689,-0.63001 -6.22197,-0.5793 -8.22862,0.37761 -1.27488,0.60794 -2.31796,1.37399 -2.31796,1.70232 0,0.32834 2.14228,3.27279 4.76061,6.54323 2.61834,3.27044 5.51494,7.45373 6.43689,9.29619 3.05955,6.11434 7.01097,9.14818 13.1053,10.06209 3.98294,0.59728 4.20169,-0.46201 0.48677,-2.35722 -1.47397,-0.75197 -2.67995,-1.83112 -2.67995,-2.39812 0,-0.567 0.30231,-0.84407 0.6718,-0.61571 0.36949,0.22836 2.25383,0.6674 4.18743,0.97563 5.63564,0.89839 10.47654,-0.26081 19.15103,-4.58589 4.2978,-2.14287 8.81278,-4.088 10.03331,-4.3225 5.02047,-0.96462 9.50566,3.32982 9.50566,9.10138 0,4.0957 -1.44901,7.26613 -5.02813,11.0015 -3.23786,3.37923 -4.72576,3.57159 -2.40386,0.31078 3.16874,-4.45009 5.0876,-10.77649 3.55576,-11.72322 -0.28945,-0.17889 -1.92403,1.42149 -3.63239,3.55641 -1.70835,2.13492 -5.58057,5.80606 -8.60493,8.15809 -11.80664,9.18196 -16.50814,14.03436 -21.1679,21.84733 -4.47258,7.49914 -6.38255,13.51812 -6.7689,21.33114 -0.41158,8.32323 0.40346,12.38582 3.90944,19.48671 2.47963,5.02217 10.74752,15.27188 9.64748,11.96 -3.58504,-10.7935 -3.78619,-18.9278 -0.69584,-28.13951 1.79099,-5.33859 6.50505,-13.74973 8.94225,-15.95537 1.25324,-1.13416 1.28971,-0.98035 1.6747,7.06298 0.76833,16.05228 4.43401,28.01956 12.36929,40.38184 3.49655,5.44724 6.58601,8.93477 13.49033,15.22853 5.43216,4.9518 7.03697,5.74281 4.78529,2.35866 -2.6694,-4.01194 -5.49915,-10.83354 -7.12277,-17.17061 -2.12721,-8.30264 -2.20827,-18.25789 -0.21403,-26.28658 1.52329,-6.13258 5.20725,-16.00427 5.97257,-16.00427 0.26352,0 0.65497,4.5978 0.8699,10.21732 0.56735,14.83331 3.16355,24.07999 9.54677,34.00191 2.98036,4.6326 8.11598,10.50169 8.6884,9.92927 0.18903,-0.18903 -0.0879,-1.37656 -0.61533,-2.63896 -1.34578,-3.22092 -3.08164,-12.80779 -3.06211,-16.91166 0.0216,-4.53264 2.22495,-14.49823 3.20557,-14.49823 0.26969,0 1.194,2.26682 2.05402,5.03737 4.37125,14.08194 13.46284,27.31632 24.42771,35.55876 5.83275,4.38456 16.43748,9.34778 24.23037,11.34031 5.3011,1.35541 9.05009,1.79845 17.95695,2.12207 6.19138,0.22496 11.0153,0.64819 10.71981,0.94052 -0.29549,0.29233 -5.02328,1.00141 -10.5062,1.57574 -10.79988,1.13126 -39.07452,1.30268 -49.46747,0.2999 z m 54.7465,-10.00244 c -19.51015,-2.55781 -35.7486,-12.45251 -43.67385,-26.61209 -7.26299,-12.97637 -10.56733,-32.53847 -7.96276,-47.14053 1.94306,-10.89348 7.33033,-20.81638 19.41646,-35.76351 8.29242,-10.25539 11.45051,-16.38993 11.45051,-22.24237 0,-2.62392 -1.26472,-4.60809 0.73696,-4.22217 6.2495,2.25867 8.34646,7.38177 8.92488,13.01662 l 0.45916,4.73807 0.79816,-2.67996 c 1.90112,-6.38329 0.20101,-11.84122 -5.11566,-16.42298 -4.08271,-3.51835 -8.41406,-4.85071 -12.96402,-3.98783 -6.0662,1.15043 -9.20016,3.9354 -15.42909,13.71093 -1.64361,2.57946 -4.52489,6.36886 -6.40283,8.4209 -3.40796,3.7239 -8.60799,7.80106 -9.19756,7.21148 -0.17127,-0.17127 -0.0151,-1.34467 0.34712,-2.60756 0.83046,-2.89562 0.85688,-8.46823 0.0426,-8.97152 -0.33879,-0.20939 -0.9831,0.73165 -1.43179,2.09118 -1.98685,6.02023 -8.54096,14.39 -13.23596,16.90269 -1.83611,0.98266 -1.87315,0.22301 -0.15086,-3.09439 1.63404,-3.14742 3.58824,-11.39535 3.03902,-12.82657 -0.29477,-0.76817 -0.92229,-0.12295 -2.26063,2.3244 -4.02802,7.36582 -9.15727,12.08915 -18.43311,16.97438 -6.37522,3.35758 -8.44931,3.57006 -5.04543,0.51688 6.15618,-5.52189 9.32525,-12.12618 9.32525,-19.43366 0,-6.17622 -1.49614,-10.52119 -4.6896,-13.61911 -2.89645,-2.80981 -3.3215,-4.74411 -1.67529,-7.62386 1.37431,-2.4041 1.3384,-2.46151 -2.29339,-3.66781 -4.68692,-1.55674 -5.04803,-2.21548 -4.88097,-8.90391 0.12823,-5.13372 -0.0425,-6.0488 -1.64318,-8.80596 -0.98245,-1.69229 -1.98009,-3.22764 -2.21698,-3.41188 -1.44238,-1.12188 -5.35812,-7.08414 -5.71265,-8.69833 -0.7577,-3.4498 1.09595,-5.56639 10.20558,-11.65316 4.70336,-3.14264 9.60679,-6.60999 10.89652,-7.70522 2.21746,-1.88307 2.28271,-2.05504 1.20027,-3.16282 -1.42365,-1.45695 -6.1279,-1.40783 -15.3931,0.16075 -6.93951,1.17485 -10.67257,2.84094 -12.80257,5.71388 -1.75472,2.36674 -1.71925,6.50475 0.0819,9.55749 1.82682,3.09623 0.46299,3.24141 -2.87964,0.30655 -4.6548,-4.08697 -5.74962,-13.85997 -2.16027,-19.28385 0.97761,-1.47726 3.96925,-4.3523 6.64811,-6.38899 33.77771,-25.68058 35.24332,-26.90263 37.02164,-30.86894 0.82634,-1.84308 2.22153,-4.00436 3.1004,-4.80286 1.67726,-1.52386 18.5887,-14.0555 25.16524,-18.64783 4.81072,-3.35928 15.35414,-13.72284 18.17363,-17.86359 1.16988,-1.71812 5.31081,-9.0687 9.20205,-16.33462 17.03034,-31.79986 34.69601,-52.54435 54.91518,-64.48595 13.78256,-8.14008 33.88312,-13.51106 50.58411,-13.51635 7.53426,-0.003 9.98227,0.90467 4.25748,1.5775 -22.0464,2.59112 -43.0642,15.32999 -56.06081,33.9784 -5.96049,8.55252 -11.87614,22.38681 -13.9523,32.62873 -1.39713,6.89222 1.12343,8.78091 5.79797,4.34451 17.31875,-16.43646 32.24134,-25.45604 47.56288,-28.74814 7.84373,-1.68537 28.55115,-1.33442 27.43903,0.46503 -0.21097,0.34136 -1.64715,0.62589 -3.1915,0.63229 -5.00181,0.0207 -11.72332,1.86316 -17.20919,4.71723 -5.079,2.64238 -7.15212,4.63931 -3.85589,3.71417 16.60144,-4.65948 27.53344,-5.34713 42.93134,-2.70046 16.6937,2.86939 35.87767,12.47344 41.95016,21.00147 1.70829,2.39908 1.19316,2.61504 -1.63546,0.68561 -6.84318,-4.66779 -17.8408,-8.7014 -23.52182,-8.62714 l -3.27771,0.0429 2.34496,1.08995 c 15.15374,7.04348 22.20659,11.66534 31.39236,20.57192 15.83223,15.35105 24.24041,33.28918 28.59079,60.99599 0.23144,1.47397 0.58181,9.62046 0.77862,18.10331 0.31588,13.61579 0.18702,16.55106 -1.09954,25.04557 -2.55934,16.89798 -6.4723,29.37136 -13.44722,42.86574 -8.18094,15.8277 -21.41471,30.5528 -36.46752,40.5771 -7.52103,5.00854 -16.74725,8.78726 -18.75067,9.71858 -0.7285,0.33865 -1.95406,0.63462 -1.51299,0.71034 1.44909,0.24876 11.11575,-0.82373 17.47071,-4.19822 2.43939,-1.29532 4.42594,-2.1638 4.41454,-1.92994 -0.0484,0.99491 -6.14934,4.90711 -12.25289,7.85721 -5.72637,2.76779 -7.26481,3.21947 -11.87425,3.48631 -6.84563,0.79908 -10.00693,-2.93662 -10.02155,-8.4025 0,-3.49644 0.31679,-4.46641 2.59292,-7.93936 4.18506,-6.38561 10.75085,-12.6604 24.15911,-23.08837 31.98382,-24.87469 47.01832,-51.27892 45.94819,-80.69619 -0.61262,-16.84056 -6.18849,-28.98332 -17.94838,-39.08673 -12.09238,-10.38909 -31.79156,-16.70148 -52.88,-16.94484 -18.67217,-0.21548 -37.5101,5.49984 -53.46093,16.21976 -2.02671,1.36207 -5.26778,3.32343 -7.20237,4.35858 -1.9346,1.03515 -3.51744,2.15528 -3.51744,2.48919 0,0.33392 2.56275,0.50081 5.69499,0.37087 5.58809,-0.23182 7.49238,0.28613 3.85234,1.04779 -5.24725,1.09795 -12.32888,1.63638 -22.3649,1.70043 -17.25861,0.11016 -22.56174,2.08785 -30.53983,11.38924 -4.12968,4.81465 -5.25355,5.66798 -12.25163,9.30241 -4.79875,2.49221 -9.3004,4.31418 -11.93504,4.8305 -8.36027,1.63843 -11.16538,5.01851 -11.86062,14.29172 -0.25854,3.44839 -0.27316,6.89019 -0.0325,7.64844 0.24066,0.75826 1.63027,2.57136 3.08803,4.02911 1.45775,1.45775 2.65046,3.09706 2.65046,3.6429 0,1.1065 3.16487,4.52511 4.18924,4.52511 0.36112,0 2.39252,1.60718 4.51424,3.57152 4.7906,4.43526 8.87601,6.39936 14.26233,6.85677 l 4.16871,0.35402 -3.34994,-1.7778 c -6.49566,-3.44722 -10.91171,-9.14653 -10.78699,-13.92159 0.0645,-2.46992 0.21358,-2.63201 3.75211,-4.07968 2.02672,-0.82917 6.54914,-3.15937 10.04983,-5.17824 12.73997,-7.34719 20.21063,-9.5897 30.54327,-9.16836 5.73747,0.23396 7.25984,0.56103 11.18869,2.40383 5.36988,2.51871 11.6173,8.16374 15.31807,13.84103 1.4184,2.17597 2.57892,4.27613 2.57892,4.66703 0,0.3909 -1.65822,-0.9269 -3.68493,-2.92844 -2.02672,-2.00153 -3.68494,-3.30643 -3.68494,-2.89978 0,0.40666 0.92,2.70537 2.04445,5.10826 1.12444,2.40289 2.52816,7.00323 3.11936,10.223 1.00304,5.4626 0.99591,6.28443 -0.10668,12.28855 -1.44492,7.8683 -3.72197,14.93243 -6.77283,21.01147 -1.26733,2.52523 -2.30423,4.87624 -2.30423,5.22447 0,3.43261 9.4595,-6.70569 15.26586,-16.36132 3.74267,-6.22384 5.28387,-11.26123 6.499,-21.24199 1.68981,-13.87963 3.87237,-20.39374 9.91099,-29.58064 9.39109,-14.28721 21.30417,-24.09662 33.60817,-27.67349 5.05098,-1.46836 14.46904,-1.4606 19.61378,0.0161 12.04065,3.45618 20.85761,12.80486 22.94784,24.33173 1.46247,8.06505 -2.13499,18.29754 -10.12188,28.79034 -2.2943,3.01414 -4.26096,5.39076 -4.37035,5.28137 -0.10939,-0.10938 1.72481,-3.99745 4.07599,-8.64015 4.14837,-8.19147 6.49931,-15.4548 6.28454,-20.21426 -0.13424,-2.97466 -0.52817,-1.54608 -2.55524,3.61649 -5.47702,13.94898 -19.11292,31.22997 -37.86051,44.85281 -34.01667,24.71804 -48.53261,43.46241 -48.5406,62.68031 -0.005,13.12179 8.26445,26.91898 19.4118,32.38587 9.54414,4.68065 21.00796,4.58392 35.41425,-0.29882 5.63473,-1.90978 15.88799,-7.11559 20.2775,-10.29533 1.54616,-1.12004 2.9607,-1.88692 3.14343,-1.70421 0.53812,0.53813 -9.93817,11.68296 -15.68292,16.68372 -12.56001,10.93339 -29.81671,21.01598 -44.20687,25.8288 -12.48957,4.17717 -20.68578,5.5088 -36.79972,5.97882 l -14.73974,0.42994 3.01494,1.97309 c 6.50396,4.25641 17.69476,6.91007 26.15097,6.20113 2.56767,-0.21527 4.66849,-0.13373 4.66849,0.18117 0,0.31491 -3.39181,1.40867 -7.53736,2.43059 -6.55197,1.61511 -8.85124,1.85736 -17.5872,1.85296 -10.55124,-0.005 -14.86887,-0.59714 -24.30484,-3.33157 -6.90037,-1.99966 -19.13327,-7.70953 -24.88487,-11.61537 -2.29769,-1.56033 -4.31689,-2.6977 -4.4871,-2.52748 -0.47373,0.47372 4.07356,6.18666 7.17612,9.01565 4.16233,3.79531 8.88356,6.58556 14.57671,8.61482 2.81845,1.00461 5.41087,2.07927 5.76094,2.38815 0.77346,0.68244 -8.47895,0.59322 -14.03625,-0.13535 z M 510.21507,284.98312 c -0.47254,-1.23143 1.37175,-2.91806 3.19085,-2.91806 1.80783,0 2.9768,1.79455 1.96395,3.01495 -1.13562,1.36834 -4.61765,1.30289 -5.1548,-0.0969 z m 42.72277,-16.74317 c -1.84205,-2.34178 -1.75385,-4.63022 0.25592,-6.63998 3.21605,-3.21606 8.62719,-1.59925 9.48313,2.83349 0.93573,4.84598 -6.60351,7.79268 -9.73905,3.80649 z m -173.88015,-9.12198 c 0.68371,-0.82911 1.95415,-2.13593 2.82321,-2.90405 l 1.5801,-1.39656 -1.3551,-3.56634 c -0.7453,-1.96148 -2.17616,-4.42335 -3.1797,-5.47081 -1.48153,-1.54638 -1.60705,-1.90448 -0.66758,-1.90448 0.63636,0 2.41161,0.64005 3.945,1.42232 2.66916,1.36171 3.08208,1.38603 9.68983,0.57082 7.17234,-0.88488 15.97034,-0.57655 19.26226,0.67504 2.44629,0.93008 2.08498,1.20673 -2.70738,2.07303 -8.72364,1.57696 -20.02213,5.86857 -26.8953,10.21589 -3.45932,2.18804 -4.12747,2.26439 -2.49534,0.28514 z"
     id="path21295"
     sodipodi:nodetypes="ssssssssssssssssssscssssssssssssssssssscssssssssssssssssssssssssssssssssssssssssssssssssssssssssssssssscccsssssssssssssssssssssssssssssssssssssscssssssssssssscssssssssssssccssssssssssssssssssssscssssssssssssssssssssssssssscssssssscsssscssssssssssssssssssscsssssssss" /></svg>
