<?xml version="1.0" encoding="UTF-8" standalone="no"?>
<!-- Created with Inkscape (http://www.inkscape.org/) -->

<svg
   width="3840"
   height="2160"
   viewBox="0 0 1016 571.50002"
   version="1.1"
   id="svg1315"
   inkscape:version="1.1.2 (b8e25be833, 2022-02-05)"
   sodipodi:docname="Poly Pride Flag Master.svg"
   xmlns:inkscape="http://www.inkscape.org/namespaces/inkscape"
   xmlns:sodipodi="http://sodipodi.sourceforge.net/DTD/sodipodi-0.dtd"
   xmlns="http://www.w3.org/2000/svg"
   xmlns:svg="http://www.w3.org/2000/svg">
  <sodipodi:namedview
     id="namedview1317"
     pagecolor="#505050"
     bordercolor="#eeeeee"
     borderopacity="1"
     inkscape:pageshadow="0"
     inkscape:pageopacity="0"
     inkscape:pagecheckerboard="0"
     inkscape:document-units="mm"
     showgrid="false"
     inkscape:zoom="0.089976151"
     inkscape:cx="-50.013253"
     inkscape:cy="622.38715"
     inkscape:window-width="1920"
     inkscape:window-height="1017"
     inkscape:window-x="-8"
     inkscape:window-y="-8"
     inkscape:window-maximized="1"
     inkscape:current-layer="layer1"
     units="px" />
  <defs
     id="defs1312" />
  <g
     inkscape:label="Layer 1"
     inkscape:groupmode="layer"
     id="layer1"
     style="display:inline"
     transform="translate(309.5625,166.6875)">
    <g
       id="g1675"
       inkscape:label="Stripes"
       style="display:inline"
       transform="matrix(2.56,0,0,2.4,-309.5625,-166.6875)">
      <path
         style="fill:#090f29;stroke-width:0.591625"
         d="M 0,119.0625 V 0 H 198.4375 396.875 V 119.0625 238.125 H 198.4375 0 Z"
         id="path1677"
         inkscape:label="Raven" />
      <path
         style="fill:#2759d7;stroke-width:0.264583"
         d="M 0,214.3125 V 190.5 H 198.4375 396.875 v 23.8125 23.8125 H 198.4375 0 Z"
         id="path1681"
         inkscape:label="Blue" />
      <path
         style="fill:#fead18;stroke-width:0.264583"
         d="M 0,119.0625 V 95.25 H 198.4375 396.875 v 23.8125 23.8125 H 198.4375 0 Z"
         id="path1683"
         inkscape:label="Gold" />
      <path
         style="fill:#d6193c;stroke-width:0.264583"
         d="M 0,23.8125 V 0 H 198.4375 396.875 V 23.8125 47.625 H 198.4375 0 Z"
         id="path1679"
         inkscape:label="Red" />
    </g>
    <g
       id="g1969"
       style="display:inline"
       inkscape:label="Heart"
       transform="matrix(2.4,0,0,2.4,-277.8125,-166.6875)">
      <rect
         style="display:inline;fill:#fdac18;fill-opacity:1;stroke:#fdac18;stroke-width:101.826;stroke-miterlimit:10;stroke-opacity:1"
         id="rect2015"
         width="52.790459"
         height="41.049328"
         x="172.03882"
         y="98.537834"
         inkscape:label="Heart Color" />
      <path
         style="display:inline;fill:#0a0f29;stroke-width:0.264583"
         d="m 119.59167,166.66587 v -23.83412 l -0.87756,-1.49973 c -2.64422,-4.51892 -4.75228,-10.42276 -5.92052,-16.58098 -0.64776,-3.41456 -0.77308,-12.65206 -0.22325,-16.45635 0.52439,-3.62833 1.63387,-8.04746 2.77684,-11.060315 l 0.80298,-2.116667 9.6e-4,-23.746354 9.6e-4,-23.746354 h 82.28542 82.28541 l 10e-4,23.746354 0.001,23.746354 0.80299,2.116667 c 1.16232,3.063855 2.27627,7.527745 2.7801,11.140565 0.53688,3.84988 0.41004,13.02064 -0.22651,16.3761 -1.16824,6.15822 -3.2763,12.06206 -5.92052,16.58098 l -0.87776,1.49973 V 166.66587 190.5 H 198.4375 119.59167 Z m 84.46868,-0.43448 c 8.02026,-7.50894 14.98422,-14.73468 21.85975,-22.68151 l 0.89198,-1.03096 2.5476,0.82799 c 4.86251,1.58035 6.11094,1.77705 11.27885,1.77705 4.10712,0 5.05948,-0.0813 6.92057,-0.59072 4.76978,-1.3056 8.07183,-3.28309 11.47564,-6.87237 5.70365,-6.01443 8.52392,-14.23468 8.10563,-23.62545 -0.28666,-6.43565 -2.08703,-12.13761 -5.43017,-17.19792 -1.36314,-2.063303 -5.18428,-5.764308 -7.23905,-7.011458 l -1.74368,-1.058334 -0.18704,-1.852083 c -0.2974,-2.944984 -1.32427,-6.552478 -2.53986,-8.922763 -1.4771,-2.88021 -4.99569,-6.468522 -7.92531,-8.082337 -2.65428,-1.462145 -6.157,-2.579527 -9.34349,-2.980614 -9.25395,-1.1648 -21.78129,3.36369 -32.34742,11.693217 -0.89376,0.704572 -1.76984,1.281039 -1.94685,1.281039 -0.17702,0 -1.0531,-0.576467 -1.94686,-1.281039 -10.56613,-8.329527 -23.09347,-12.858017 -32.34742,-11.693217 -3.18649,0.401087 -6.68921,1.518469 -9.34349,2.980614 -2.92962,1.613815 -6.44821,5.202127 -7.92531,8.082337 -1.21707,2.373172 -2.24416,5.984025 -2.53804,8.922763 l -0.18521,1.852083 -1.41422,0.865299 c -6.10767,3.737031 -10.49634,10.34688 -12.33742,18.581573 -0.82723,3.70001 -0.88548,10.74582 -0.11921,14.4198 1.31813,6.31992 3.91845,11.3728 7.99263,15.53114 3.06456,3.12785 6.55074,5.1381 11.04294,6.36772 1.86109,0.50943 2.81345,0.59072 6.92057,0.59072 5.16969,0 6.41574,-0.19648 11.28721,-1.77979 l 2.55597,-0.83073 0.75132,0.90572 c 2.21486,2.66999 7.59768,8.55499 11.32863,12.3855 6.28051,6.4481 15.80797,15.39053 16.31585,15.31399 0.23916,-0.036 2.75237,-2.23531 5.58491,-4.88726 z m -12.52653,-15.61733 c -5.88336,-5.96039 -11.59796,-12.11939 -11.82418,-12.74369 -0.0411,-0.11342 1.44719,-1.23435 3.3073,-2.49094 3.88829,-2.62674 6.97427,-5.04237 11.81184,-9.24604 1.87974,-1.63341 3.50366,-2.96985 3.60872,-2.96985 0.10505,0 1.72897,1.33644 3.60871,2.96985 4.83757,4.20367 7.92355,6.6193 11.81184,9.24604 1.86011,1.25659 3.34839,2.37752 3.3073,2.49094 -0.33638,0.92832 -18.17526,19.55671 -18.72785,19.55671 -0.0983,0 -3.20495,-3.06586 -6.90368,-6.81302 z m -37.84531,-15.94621 c -6.29081,-0.98212 -10.7283,-5.37319 -12.70986,-12.57692 -0.47763,-1.73638 -0.58149,-2.83939 -0.59659,-6.33572 -0.0198,-4.5811 0.25534,-6.1506 1.70118,-9.70499 0.70925,-1.74359 2.99197,-5.24397 3.41978,-5.24397 0.12101,0 0.54469,1.0418 0.9415,2.3151 2.61326,8.38558 7.6911,18.02367 14.64653,27.80008 1.06855,1.50194 1.90169,2.77125 1.85141,2.8207 -0.2163,0.21269 -4.21512,0.90765 -5.91225,1.02749 -1.01865,0.0719 -2.52241,0.0262 -3.3417,-0.10177 z m 85.36252,0.10238 c -1.31178,-0.18385 -5.01883,-0.92691 -5.11776,-1.02584 -0.0507,-0.0507 0.78212,-1.32102 1.85067,-2.82296 6.95543,-9.77641 12.03327,-19.4145 14.64653,-27.80008 0.39681,-1.2733 0.82049,-2.3151 0.9415,-2.3151 0.42781,0 2.71053,3.50038 3.41978,5.24397 1.44584,3.55439 1.72095,5.12389 1.70118,9.70499 -0.0212,4.90771 -0.4519,6.94438 -2.25746,10.67466 -1.94019,4.00842 -5.66623,7.08044 -9.62819,7.93816 -1.60245,0.34692 -4.46974,0.55447 -5.55625,0.4022 z m -68.07799,-7.82544 c -6.98291,-9.4579 -12.6488,-20.21618 -14.70654,-27.924477 l -0.65333,-2.447396 1.36997,0.0057 c 1.56659,0.0066 5.06611,0.733544 7.58769,1.576273 6.60231,2.20655 15.8217,8.18854 23.99809,15.57116 l 2.16997,1.9593 -1.48443,1.35784 c -4.4434,4.06445 -11.4415,9.33823 -16.14324,12.16557 -0.21213,0.12756 -0.94675,-0.65029 -2.13818,-2.26399 z m 50.08633,0.52947 c -4.78304,-3.18425 -9.61433,-6.93682 -13.48289,-10.47246 l -1.44038,-1.31643 2.16997,-1.9593 c 8.17639,-7.38261 17.39578,-13.36461 23.99809,-15.571154 2.52158,-0.84273 6.0211,-1.569725 7.58769,-1.576274 l 1.36997,-0.0057 -0.65364,2.447396 c -1.399,5.238142 -5.3351,13.680132 -9.34471,20.042192 -2.10506,3.3401 -5.40064,8.10232 -6.55637,9.47414 l -0.73731,0.87519 -2.91042,-1.93757 z M 197.7509,107.91799 c -0.81182,-0.90385 -5.8473,-5.26169 -8.58448,-7.42922 -11.31053,-8.956671 -21.89251,-13.834527 -31.25049,-14.405204 l -2.81844,-0.171879 0.40079,-1.350113 c 1.5403,-5.188625 4.5939,-7.718115 9.68389,-8.021788 8.90277,-0.531146 19.06002,4.317399 30.27876,14.453521 l 2.97656,2.689322 2.97657,-2.689322 c 5.56627,-5.029118 9.98747,-8.18269 15.03219,-10.722214 5.51525,-2.776391 10.55972,-4.010929 15.24657,-3.731307 5.08999,0.303673 8.14359,2.833163 9.68389,8.021788 l 0.40079,1.350113 -2.81844,0.171879 c -9.35798,0.570677 -19.93996,5.448533 -31.25049,14.405204 -2.73718,2.16753 -7.77266,6.52537 -8.58448,7.42922 -0.27721,0.30865 -0.58618,0.56118 -0.68659,0.56118 -0.10042,0 -0.40939,-0.25253 -0.6866,-0.56118 z"
         id="path1971"
         inkscape:label="Heart Stencil" />
    </g>
  </g>
</svg>
