<?xml version="1.0" encoding="UTF-8" standalone="no"?>
<!-- Created with Inkscape (http://www.inkscape.org/) -->

<svg
   width="3840"
   height="2160"
   viewBox="0 0 3840 2160"
   version="1.1"
   id="svg5"
   inkscape:version="1.2.2 (732a01da63, 2022-12-09)"
   sodipodi:docname="Salmacian Pride Flag Master.svg"
   xmlns:inkscape="http://www.inkscape.org/namespaces/inkscape"
   xmlns:sodipodi="http://sodipodi.sourceforge.net/DTD/sodipodi-0.dtd"
   xmlns="http://www.w3.org/2000/svg"
   xmlns:svg="http://www.w3.org/2000/svg">
  <sodipodi:namedview
     id="namedview7"
     pagecolor="#505050"
     bordercolor="#eeeeee"
     borderopacity="1"
     inkscape:pageshadow="2"
     inkscape:pageopacity="0"
     inkscape:pagecheckerboard="false"
     inkscape:document-units="px"
     showgrid="false"
     units="px"
     fit-margin-top="0"
     fit-margin-left="0"
     fit-margin-right="0"
     fit-margin-bottom="0"
     inkscape:zoom="0.11313708"
     inkscape:cx="685.0097"
     inkscape:cy="1237.4369"
     inkscape:window-width="1920"
     inkscape:window-height="1017"
     inkscape:window-x="-8"
     inkscape:window-y="1072"
     inkscape:window-maximized="1"
     inkscape:current-layer="layer1"
     inkscape:showpageshadow="0"
     inkscape:deskcolor="#505050" />
  <defs
     id="defs2" />
  <g
     id="g977"
     inkscape:label="Loose Parts"
     transform="translate(1134.5015,74.193682)"
     style="display:none">
    <circle
       style="display:inline;fill:#000000;stroke:none;stroke-width:4.09582;stroke-linecap:round;stroke-linejoin:round;paint-order:stroke fill markers"
       id="path31"
       cx="-517.52502"
       cy="217.62498"
       r="79.375" />
    <path
       style="display:inline;fill:#000000;stroke:none;stroke-width:0.264583px;stroke-linecap:butt;stroke-linejoin:miter;stroke-opacity:1"
       d="M -392.9412,138.24998 H -517.525 v 25.1336 h 112.87177 z"
       id="path2434"
       sodipodi:nodetypes="ccccc" />
    <circle
       style="display:inline;fill:#ffffff;stroke:none;stroke-width:2.79882;stroke-linecap:round;stroke-linejoin:round;paint-order:stroke fill markers"
       id="circle153"
       cx="-517.52502"
       cy="217.62498"
       r="54.239582" />
    <path
       style="display:inline;fill:none;stroke:#ff0000;stroke-width:0.264583;stroke-linecap:butt;stroke-linejoin:miter;stroke-miterlimit:4;stroke-dasharray:none;stroke-opacity:1"
       d="M -512.86533,395.444 -341.36884,27.668609"
       id="path206"
       inkscape:transform-center-x="-21.235029"
       inkscape:transform-center-y="-45.530897" />
    <path
       id="circle3733"
       style="display:inline;fill:#000000;stroke:none;stroke-width:4.09583;stroke-linecap:round;stroke-linejoin:round;paint-order:stroke fill markers"
       d="m -832.37916,138.24996 a 79.374999,79.374999 0 0 0 -79.375,79.375 79.374999,79.374999 0 0 0 79.375,79.37499 79.374999,79.374999 0 0 0 79.375,-79.37499 79.374999,79.374999 0 0 0 -20.75791,-53.40398 l 0.35864,0.35812 0.0439,-0.032 c 0,0 -1.04016,-1.06354 0.43874,-1.16324 h 50.77674 v -0.002 h 0.0599 c 2.32004,-0.0361 3.55519,-2.15198 3.73104,-2.47581 l 9.42062,-20.21738 c 0,0 1.01492,-2.43912 -1.51516,-2.43912 z m 0,25.13541 a 54.239583,54.239583 0 0 1 45.41118,24.61039 c 0.80622,1.37814 -0.047,2.10633 -0.047,2.10633 l 0.0294,0.0119 c -0.15097,0.0874 -0.30853,0.1762 -0.4532,0.26148 -2.30728,1.36014 -3.8542,2.38228 -8.02432,2.38228 -4.17024,0 -5.71758,-1.02219 -8.02483,-2.38228 -2.30725,-1.35998 -5.37677,-3.0546 -10.43554,-3.0546 -5.05879,0 -8.12835,1.69462 -10.43554,3.0546 -2.30744,1.36014 -3.85458,2.38228 -8.02483,2.38228 -4.17012,0 -5.71715,-1.02219 -8.02432,-2.38228 -2.30722,-1.35998 -5.36723,-3.0546 -10.42623,-3.0546 -5.05884,0 -8.12804,1.69462 -10.43554,3.0546 -2.30721,1.36014 -3.8542,2.38228 -8.02432,2.38228 -4.17029,0 -5.71704,-1.02219 -8.02431,-2.38228 -0.14484,-0.0854 -0.30258,-0.17451 -0.45374,-0.262 l 0.029,-0.0114 c 0,0 -0.56653,-0.48391 -0.33951,-1.40922 a 54.239583,54.239583 0 0 1 45.70367,-25.3075 z m -18.4552,44.1384 c 4.17023,0 5.71687,1.02155 8.02431,2.38176 2.30722,1.35996 5.36735,3.05511 10.42624,3.05511 5.05887,0 8.12833,-1.69515 10.43554,-3.05511 2.3073,-1.36024 3.85459,-2.38176 8.02483,-2.38176 4.17006,0 5.71706,1.02155 8.02432,2.38176 2.30739,1.35996 5.37654,3.05511 10.43554,3.05511 5.0588,0 8.12859,-1.69515 10.43605,-3.05511 1.3749,-0.81057 2.48346,-1.49878 4.03438,-1.92443 1.48866,-0.25124 2.17507,1.7284 2.33577,2.2779 a 54.239583,54.239583 0 0 1 0.5178,7.36596 54.239583,54.239583 0 0 1 -0.76998,8.79533 c -0.42397,1.16781 -1.34016,1.53675 -1.84278,1.65261 -0.055,0.0106 -0.10992,0.0211 -0.16433,0.032 -0.1138,0.0182 -0.18293,0.0207 -0.18293,0.0207 l 0.0129,0.0129 c -2.76383,0.58604 -4.74467,1.69492 -6.35259,2.64273 -2.30728,1.36014 -3.85419,2.38177 -8.02431,2.38177 -4.17024,0 -5.71759,-1.02168 -8.02484,-2.38177 -2.30725,-1.35998 -5.37677,-3.05511 -10.43554,-3.05511 -5.05879,0 -8.12834,1.69513 -10.43553,3.05511 -2.30745,1.36014 -3.85407,2.38177 -8.02432,2.38177 -4.17012,0 -5.71766,-1.02168 -8.02484,-2.38177 -2.30721,-1.35998 -5.36671,-3.05511 -10.42571,-3.05511 -5.05884,0 -8.12856,1.69513 -10.43606,3.05511 -2.30719,1.36014 -3.85421,2.38177 -8.02431,2.38177 -4.17028,0 -5.71706,-1.02168 -8.02433,-2.38177 -1.60811,-0.94781 -3.58873,-2.05669 -6.35257,-2.64273 l 0.0129,-0.0129 c 0,0 -0.0691,-0.002 -0.18293,-0.0207 -0.0544,-0.011 -0.10933,-0.0215 -0.16433,-0.032 -0.50263,-0.11586 -1.4188,-0.4848 -1.84277,-1.65261 a 54.239583,54.239583 0 0 1 -0.76999,-8.79533 54.239583,54.239583 0 0 1 0.68781,-7.85947 c 0.30977,-0.7813 0.98631,-1.98437 2.1668,-1.78439 1.5507,0.42567 2.65909,1.11396 4.03387,1.92443 2.3073,1.35996 5.37718,3.05511 10.43604,3.05511 5.0588,0 8.1186,-1.69515 10.42572,-3.05511 2.30727,-1.36024 3.86391,-2.38176 8.03414,-2.38176 z m -5.2e-4,40.40528 c 4.17024,0 5.71739,1.02207 8.02483,2.38228 2.30722,1.35996 5.36683,3.05511 10.42572,3.05511 5.05887,0 8.12885,-1.69515 10.43606,-3.05511 2.3073,-1.36024 3.85407,-2.38228 8.02431,-2.38228 4.17006,0 5.71706,1.02207 8.02432,2.38228 2.21149,1.30344 5.12833,2.91051 9.82059,3.04219 2.64382,0.14853 2.95937,0.96989 2.84375,1.54203 a 54.239583,54.239583 0 0 1 -39.14386,16.96898 54.239583,54.239583 0 0 1 -39.14386,-16.96898 c -0.1157,-0.5725 0.20045,-1.39426 2.84893,-1.54203 4.68833,-0.13271 7.59465,-1.73922 9.80507,-3.04219 2.30727,-1.36024 3.86391,-2.38228 8.03414,-2.38228 z" />
  </g>
  <g
     inkscape:label="Flag"
     inkscape:groupmode="layer"
     id="layer1"
     transform="translate(309.56249,107.81254)">
    <rect
       style="display:inline;fill:#4f7942;fill-opacity:1;stroke:#4f7942;stroke-width:198.212;stroke-miterlimit:10;stroke-opacity:1"
       id="rect854"
       width="3641.7874"
       height="1961.7875"
       x="-210.45628"
       y="-8.7063408"
       inkscape:label="Green Backdrop"
       inkscape:export-filename="D:\Users\ELRinley\Pictures\Pride\GitHub\Pride-Flags-Reconstruction\Emoji\Salmacian Pride Square.png"
       inkscape:export-xdpi="96"
       inkscape:export-ydpi="96" />
    <rect
       style="fill:#7644b6;fill-opacity:1;stroke:none;stroke-width:66.3247;stroke-linecap:round;stroke-linejoin:round;paint-order:stroke fill markers"
       id="rect65"
       width="3599.9998"
       height="2159.9998"
       x="-189.56242"
       y="-107.81248"
       inkscape:label="Purple Backdrop"
       inkscape:export-filename="D:\Users\ELRinley\Pictures\Pride\GitHub\Pride-Flags-Reconstruction\Emoji\Salmacian Pride Square.png"
       inkscape:export-xdpi="96"
       inkscape:export-ydpi="96" />
    <path
       id="path220"
       style="display:inline;fill:#4f7942;fill-opacity:1;stroke:none;stroke-width:2.4;stroke-linecap:butt;stroke-linejoin:miter;stroke-miterlimit:4;stroke-dasharray:none;stroke-opacity:1"
       d="M 2960.1231,-107.81235 1952.8967,2052.1874 H 3410.4371 V -107.81243 Z"
       sodipodi:nodetypes="ccccc"
       inkscape:label="Green Panel Right"
       inkscape:export-filename="D:\Users\ELRinley\Pictures\Pride\GitHub\Pride-Flags-Reconstruction\Emoji\Salmacian Pride Square.png"
       inkscape:export-xdpi="96"
       inkscape:export-ydpi="96" />
    <path
       id="path1424"
       style="fill:#4f7942;fill-opacity:1;stroke:none;stroke-width:2.4;stroke-linecap:butt;stroke-linejoin:miter;stroke-miterlimit:4;stroke-dasharray:none;stroke-opacity:1"
       d="M 260.75175,2052.1875 1267.9779,-107.81231 H -189.56239 V 2052.1875 Z"
       sodipodi:nodetypes="ccccc"
       inkscape:label="Green Panel Left"
       inkscape:export-filename="D:\Users\ELRinley\Pictures\Pride\GitHub\Pride-Flags-Reconstruction\Emoji\Salmacian Pride Square.png"
       inkscape:export-xdpi="96"
       inkscape:export-ydpi="96" />
    <path
       style="fill:#ffe680;fill-opacity:1;stroke:none;stroke-width:2.4px;stroke-linecap:butt;stroke-linejoin:miter;stroke-opacity:1"
       d="M 2136.1788,2052.1874 3143.4052,-107.81235 H 2960.1231 L 1952.8967,2052.1874 Z"
       id="path76850"
       sodipodi:nodetypes="ccccc"
       inkscape:label="Gold Stripe Right"
       inkscape:export-filename="D:\Users\ELRinley\Pictures\Pride\GitHub\Pride-Flags-Reconstruction\Emoji\Salmacian Pride Square.png"
       inkscape:export-xdpi="96"
       inkscape:export-ydpi="96" />
    <path
       style="fill:#ffe680;fill-opacity:1;stroke:none;stroke-width:2.4px;stroke-linecap:butt;stroke-linejoin:miter;stroke-opacity:1"
       d="M 260.75175,2052.1875 1267.9781,-107.81228 H 1084.696 L 77.469651,2052.1875 Z"
       id="path81010"
       sodipodi:nodetypes="ccccc"
       inkscape:label="Green Stripe Left"
       inkscape:export-filename="D:\Users\ELRinley\Pictures\Pride\GitHub\Pride-Flags-Reconstruction\Emoji\Salmacian Pride Square.png"
       inkscape:export-xdpi="96"
       inkscape:export-ydpi="96" />
    <path
       id="circle3733-9"
       style="display:inline;fill:#ffe680;fill-opacity:1;stroke:none;stroke-width:27.8645;stroke-linecap:round;stroke-linejoin:round;paint-order:stroke fill markers"
       d="M 1610.4372,432.18782 A 539.99979,539.99979 0 0 0 1070.4375,972.18769 539.99979,539.99979 0 0 0 1610.4372,1512.1873 539.99979,539.99979 0 0 0 2150.437,972.18769 539.99979,539.99979 0 0 0 2009.2179,608.87258 l 2.4398,2.43625 0.2986,-0.2177 c 0,0 -7.0763,-7.23537 2.9848,-7.9136 h 345.4417 v -0.009 h 0.4072 c 15.7835,-0.24582 24.1865,-14.64029 25.3829,-16.84342 l 64.0897,-137.54171 c 0,0 6.9047,-16.59379 -10.3078,-16.59379 z m 0,170.99996 a 368.99987,368.99987 0 0 1 308.939,167.42803 c 5.4848,9.37573 -0.3201,14.3297 -0.3201,14.3297 l 0.2003,0.0816 c -1.0271,0.59505 -2.099,1.19872 -3.0832,1.77887 -15.6968,9.25331 -26.2207,16.20703 -54.5907,16.20703 -28.3707,0 -38.8975,-6.9541 -54.594,-16.20703 -15.6966,-9.25209 -36.5789,-20.78078 -70.9945,-20.78078 -34.4157,0 -55.2984,11.52869 -70.9945,20.78078 -15.6979,9.25331 -26.2234,16.20703 -54.5942,16.20703 -28.3698,0 -38.8946,-6.9541 -54.5905,-16.20703 -15.6965,-9.25209 -36.5142,-20.78078 -70.9313,-20.78078 -34.4161,0 -55.2963,11.52869 -70.9945,20.78078 -15.6962,9.25331 -26.2207,16.20703 -54.5907,16.20703 -28.371,0 -38.8937,-6.9541 -54.5905,-16.20703 -0.9854,-0.58053 -2.0585,-1.18718 -3.0868,-1.78242 l 0.1969,-0.0726 c 0,0 -3.8541,-3.29208 -2.3097,-9.58707 A 368.99987,368.99987 0 0 1 1610.437,603.1934 Z m -125.5535,300.28001 c 28.3708,0 38.8928,6.94972 54.5906,16.20348 15.6964,9.25202 36.5149,20.78434 70.9313,20.78434 34.4162,0 55.2981,-11.53232 70.9944,-20.78434 15.6969,-9.25391 26.2234,-16.20348 54.5942,-16.20348 28.3695,0 38.8939,6.94972 54.5906,16.20348 15.6975,9.25202 36.5774,20.78434 70.9945,20.78434 34.4157,0 55.3,-11.53232 70.998,-20.78434 9.3537,-5.51445 16.8953,-10.19637 27.4465,-13.09217 10.1275,-1.70933 14.7973,11.75856 15.8905,15.49685 a 368.99987,368.99987 0 0 1 3.5227,50.11174 368.99987,368.99987 0 0 1 -5.2382,59.83591 c -2.8844,7.9447 -9.1174,10.4548 -12.5367,11.2429 -0.3738,0.073 -0.7474,0.1432 -1.118,0.2177 -0.7746,0.1243 -1.2446,0.1406 -1.2446,0.1406 l 0.091,0.091 c -18.8027,3.987 -32.2786,11.5309 -43.2176,17.979 -15.6967,9.2532 -26.2207,16.2035 -54.5905,16.2035 -28.3708,0 -38.8976,-6.9507 -54.5942,-16.2035 -15.6965,-9.2522 -36.5789,-20.7843 -70.9945,-20.7843 -34.4157,0 -55.2983,11.5321 -70.9945,20.7843 -15.6978,9.2532 -26.2198,16.2035 -54.5905,16.2035 -28.37,0 -38.8982,-6.9507 -54.5942,-16.2035 -15.6964,-9.2522 -36.5105,-20.7843 -70.9276,-20.7843 -34.4162,0 -55.2999,11.5321 -70.9981,20.7843 -15.6961,9.2532 -26.2207,16.2035 -54.5905,16.2035 -28.3711,0 -38.894,-6.9507 -54.5908,-16.2035 -10.9402,-6.4481 -24.4145,-13.992 -43.2174,-17.979 l 0.091,-0.091 c 0,0 -0.4699,-0.019 -1.2446,-0.1406 -0.37,-0.073 -0.7438,-0.1459 -1.1179,-0.2177 -3.4195,-0.7883 -9.6523,-3.2982 -12.5366,-11.2429 a 368.99987,368.99987 0 0 1 -5.2384,-59.83591 368.99987,368.99987 0 0 1 4.6792,-53.46913 c 2.1074,-5.31538 6.7101,-13.50002 14.7411,-12.13946 10.5497,2.89587 18.0902,7.57844 27.443,13.09217 15.6969,9.25202 36.5818,20.78434 70.9979,20.78434 34.4158,0 55.232,-11.53232 70.9276,-20.78434 15.6967,-9.25391 26.2868,-16.20348 54.6576,-16.20348 z m 0,274.88311 c 28.3708,0 38.8963,6.9532 54.5942,16.2069 15.6963,9.2521 36.5113,20.7844 70.9277,20.7844 34.4162,0 55.3016,-11.5323 70.998,-20.7844 15.6969,-9.2539 26.2198,-16.2069 54.5906,-16.2069 28.3695,0 38.894,6.9532 54.5906,16.2069 15.0451,8.8675 34.8888,19.8006 66.811,20.6965 17.9862,1.0105 20.1329,6.5983 19.3464,10.4906 a 368.99987,368.99987 0 0 1 -266.3014,115.4425 368.99987,368.99987 0 0 1 -266.3015,-115.4425 c -0.7873,-3.8947 1.3637,-9.4853 19.3817,-10.4906 31.8955,-0.9025 51.6675,-11.8321 66.7054,-20.6965 15.6967,-9.2539 26.2867,-16.2069 54.6574,-16.2069 z"
       inkscape:label="Symbol"
       inkscape:export-filename="D:\Users\ELRinley\Pictures\Pride\GitHub\Pride-Flags-Reconstruction\Emoji\Salmacian Pride Square.png"
       inkscape:export-xdpi="96"
       inkscape:export-ydpi="96" />
  </g>
</svg>
