<?xml version="1.0" encoding="UTF-8" standalone="no"?>
<!-- Created with Inkscape (http://www.inkscape.org/) -->

<svg
   width="1785"
   height="2160"
   viewBox="0 0 1785.0001 2160.0001"
   version="1.1"
   id="svg10935"
   xml:space="preserve"
   inkscape:version="1.2.2 (732a01da63, 2022-12-09)"
   sodipodi:docname="Spades.svg"
   inkscape:export-filename="Spades.png"
   inkscape:export-xdpi="96"
   inkscape:export-ydpi="96"
   xmlns:inkscape="http://www.inkscape.org/namespaces/inkscape"
   xmlns:sodipodi="http://sodipodi.sourceforge.net/DTD/sodipodi-0.dtd"
   xmlns="http://www.w3.org/2000/svg"
   xmlns:svg="http://www.w3.org/2000/svg"><sodipodi:namedview
     id="namedview10937"
     pagecolor="#505050"
     bordercolor="#eeeeee"
     borderopacity="1"
     inkscape:showpageshadow="0"
     inkscape:pageopacity="0"
     inkscape:pagecheckerboard="0"
     inkscape:deskcolor="#505050"
     inkscape:document-units="px"
     showgrid="false"
     inkscape:zoom="0.18641098"
     inkscape:cx="-1172.1413"
     inkscape:cy="1443.048"
     inkscape:window-width="1920"
     inkscape:window-height="1017"
     inkscape:window-x="-8"
     inkscape:window-y="1072"
     inkscape:window-maximized="1"
     inkscape:current-layer="layer1" /><defs
     id="defs10932" /><g
     inkscape:label="Layer 1"
     inkscape:groupmode="layer"
     id="layer1"><path
       style="fill:#000000;stroke-width:4.83301"
       d="m 228.2406,2152.9708 c -37.62439,-13.3051 -64.84404,-58.4303 -57.82307,-95.8599 9.21299,-49.1156 40.49855,-71.9226 110.98296,-80.9053 229.3817,-29.2342 424.6636,-184.3163 475.55756,-377.6607 5.10018,-19.3748 10.34714,-43.9275 11.66008,-54.5608 l 2.3871,-19.3333 -29.74645,28.2488 C 574.75918,1711.014 313.09296,1709.4529 140.19894,1549.3133 46.343998,1462.3819 -7.7035106,1323.4248 0.89210629,1191.1527 10.152512,1048.651 64.589533,910.5237 180.26695,736.011 235.5252,652.6475 258.51037,622.2649 336.67884,529.2599 444.32953,401.1769 599.95889,245.40183 742.92497,122.63337 823.11025,53.77626 888.8057,0 892.73912,0 c 3.93352,0 69.62887,53.77626 149.81418,122.63337 179.7898,154.38995 372.3856,354.72223 492.1102,511.87813 38.8541,51.0017 113.0184,164.6618 142.7308,218.7414 27.574,50.1874 61.9303,130.3401 79.5766,185.6506 71.7769,224.9792 3.0023,444.568 -175.3981,560.0247 -170.647,110.4382 -392.6099,91.4254 -537.3533,-46.0286 l -29.7464,-28.2488 2.3871,19.3333 c 11.5483,93.5313 60.696,188.0751 136.9335,263.4153 95.8767,94.7488 213.3322,151.3517 350.284,168.8062 70.4844,8.9827 101.77,31.7897 110.983,80.9053 7.2912,38.8704 -23.5099,86.8299 -62.7648,97.7295 -13.5966,3.7748 -207.3229,5.2828 -661.97308,5.1518 -541.3597,-0.1547 -645.8007,-1.2639 -662.08222,-7.0214 z"
       id="path300" /></g></svg>
